# File created by Blade
# Date/Time:  Tue Apr 07 20:57:01 2015
#---------------------------------------------------------
:version 1.10
:name HOM
:units
  mass 1.0
  length 1.000000
  angle deg
:documentation
     Acclaim Skeleton File
:root
   axis xyz
   order TX TY TZ RX RY RZ
   position 0.000000 0.000000 0.000000
   orientation 0 0 0
:bonedata
   begin
      id 1
      name Spine_dum
      direction 0.000000 1.000000 0.000000
      length 4.885285
      axis 0.0 0.0 0.0 xyz
   end
   begin
      id 2
      name LeftUpLeg_dum
      direction 1.000000 0.000000 0.000000
      length 2.672193
      axis 0.0 0.0 0.0 xyz
   end
   begin
      id 3
      name RightUpLeg_dum
      direction -1.000000 0.000000 0.000000
      length 2.672193
      axis 0.0 0.0 0.0 xyz
   end
   begin
      id 4
      name Spine
      direction 0.000000 1.000000 0.000000
      length 0.000000
      axis 0.0 0.0 0.0 xyz
      dof rx ry rz
   end
   begin
      id 5
      name Spine_dum1
      direction 0.000000 1.000000 0.000000
      length 16.494159
      axis 0.0 0.0 0.0 xyz
   end
   begin
      id 6
      name Spine_dum2
      direction 0.000000 1.000000 0.000000
      length 10.663448
      axis 0.0 0.0 0.0 xyz
   end
   begin
      id 7
      name Spine_dum3
      direction 0.000000 1.000000 0.000000
      length 10.663448
      axis 0.0 0.0 0.0 xyz
   end
   begin
      id 8
      name Head
      direction 0.000000 1.000000 0.000000
      length 4.527550
      axis 0.0 0.0 0.0 xyz
      dof rx ry rz
   end
   begin
      id 9
      name LeftShoulder
      direction 1.000000 0.000000 0.000000
      length 7.531907
      axis 0.0 0.0 -90.0 xyz
      dof rx ry rz
   end
   begin
      id 10
      name LeftArm
      direction 1.000000 0.000000 0.000000
      length 10.229199
      axis 0.0 0.0 -90.0 xyz
      dof rx ry rz
   end
   begin
      id 11
      name LeftForeArm
      direction 1.000000 0.000000 0.000000
      length 8.673495
      axis 0.0 0.0 -90.0 xyz
      dof ry rz rx
   end
   begin
      id 12
      name LeftHand
      direction 0.000000 0.000000 0.000000
      length 0.000000
      axis 0.0 0.0 -90.0 xyz
      dof rx ry rz
   end
   begin
      id 13
      name LeftHand_dum1
      direction 0.000000 0.000000 0.000000
      length 0.000000
      axis 0.0 0.0 -90.0 xyz
   end
   begin
      id 14
      name LeftHand_dum2
      direction 1.000000 0.000000 0.000000
      length 3.937000
      axis 0.0 0.0 -90.0 xyz
   end
   begin
      id 15
      name LeftHandThumb1
      direction 0.000000 0.000000 1.000000
      length 3.937000
      axis 0.0 0.0 -90.0 xyz
      dof rx rz ry
   end
   begin
      id 16
      name RightShoulder
      direction -1.000000 0.000000 0.000000
      length 7.531907
      axis 0.0 0.0 90.0 xyz
      dof rx ry rz
   end
   begin
      id 17
      name RightArm
      direction -1.000000 0.000000 0.000000
      length 10.229199
      axis 0.0 0.0 90.0 xyz
      dof rx ry rz
   end
   begin
      id 18
      name RightForeArm
      direction -1.000000 0.000000 0.000000
      length 8.673495
      axis 0.0 0.0 90.0 xyz
      dof ry rz rx
   end
   begin
      id 19
      name RightHand
      direction 0.000000 0.000000 0.000000
      length 0.000000
      axis 0.0 0.0 90.0 xyz
      dof rx ry rz
   end
   begin
      id 20
      name RightHand_dum1
      direction 0.000000 0.000000 0.000000
      length 0.000000
      axis 0.0 0.0 90.0 xyz
   end
   begin
      id 21
      name RightHand_dum2
      direction -1.000000 0.000000 0.000000
      length 3.937000
      axis 0.0 0.0 90.0 xyz
   end
   begin
      id 22
      name RightHandThumb1
      direction 0.000000 0.000000 1.000000
      length 3.937000
      axis 0.0 0.0 90.0 xyz
      dof rx rz ry
   end
   begin
      id 23
      name LeftUpLeg
      direction 0.000000 -1.000000 0.000000
      length 16.263388
      axis 0.0 0.0 0.0 xyz
      dof rx ry rz
   end
   begin
      id 24
      name LeftLeg
      direction 0.000000 -1.000000 0.000000
      length 14.328163
      axis 0.0 0.0 0.0 xyz
      dof rx ry rz
   end
   begin
      id 25
      name LeftFoot
      direction 0.000000 -0.258819 0.965926
      length 5.031290
      axis 15.0 0.0 0.0 xyz
      dof rx ry rz
   end
   begin
      id 26
      name LeftToeBase
      direction 0.000000 0.000000 1.000000
      length 2.952750
      axis 0.0 0.0 0.0 xyz
      dof rx ry rz
   end
   begin
      id 27
      name RightUpLeg
      direction 0.000000 -1.000000 0.000000
      length 16.263388
      axis 0.0 0.0 0.0 xyz
      dof rx ry rz
   end
   begin
      id 28
      name RightLeg
      direction 0.000000 -1.000000 0.000000
      length 14.328163
      axis 0.0 0.0 0.0 xyz
      dof rx ry rz
   end
   begin
      id 29
      name RightFoot
      direction 0.000000 -0.258819 0.965926
      length 5.031290
      axis 15.0 0.0 0.0 xyz
      dof rx ry rz
   end
   begin
      id 30
      name RightToeBase
      direction 0.000000 0.000000 1.000000
      length 2.952750
      axis 0.0 0.0 0.0 xyz
      dof rx ry rz
   end
:hierarchy
   begin
      root Spine_dum LeftUpLeg_dum RightUpLeg_dum
      Spine_dum Spine
      LeftUpLeg_dum LeftUpLeg
      RightUpLeg_dum RightUpLeg
      Spine Spine_dum1 Spine_dum2 Spine_dum3
      Spine_dum1 Head
      Spine_dum2 LeftShoulder
      Spine_dum3 RightShoulder
      LeftShoulder LeftArm
      LeftArm LeftForeArm
      LeftForeArm LeftHand
      LeftHand LeftHand_dum1 LeftHand_dum2
      LeftHand_dum1 LeftHandThumb1
      RightShoulder RightArm
      RightArm RightForeArm
      RightForeArm RightHand
      RightHand RightHand_dum1 RightHand_dum2
      RightHand_dum1 RightHandThumb1
      LeftUpLeg LeftLeg
      LeftLeg LeftFoot
      LeftFoot LeftToeBase
      RightUpLeg RightLeg
      RightLeg RightFoot
      RightFoot RightToeBase
   end

# File created by Blade
# Date/Time:  Tue Apr 07 20:57:09 2015
# Frame Rate: 120.000 fps
#------------------------------------------------------
:FULLY-SPECIFIED
:DEGREES
1
root 1.266118 32.924540 1.125648 4.599951 2.651501 -2.114070
Spine -7.203720 -7.444647 0.564518
Head 15.878368 -1.868815 -0.042643
LeftShoulder -22.718071 43.541228 17.372119
LeftArm 63.742939 -54.815469 -63.908650
LeftForeArm 7.347466 0.000000 -3.513819
LeftHand 2.281094 -0.000000 8.808465
LeftHandThumb1 -26.253704 0.000000 33.147579
RightShoulder -8.756222 3.636634 -30.958715
RightArm 15.486656 15.780898 40.665154
RightForeArm -13.306769 0.000000 1.146453
RightHand 2.046492 -0.000000 3.009990
RightHandThumb1 -24.326973 -0.000000 -32.862282
LeftUpLeg 2.347274 -6.572507 1.725451
LeftLeg -5.039230 -0.000000 0.000000
LeftFoot -3.923513 6.538771 -16.986032
LeftToeBase -8.718576 -0.000000 0.000000
RightUpLeg 2.181616 -2.207833 3.909472
RightLeg -3.630524 -0.000000 0.000000
RightFoot -6.025907 -9.028492 8.251359
RightToeBase -1.232216 -0.000000 0.000000
2
root 1.263984 32.924117 1.134850 4.602621 2.660285 -2.111180
Spine -7.244463 -7.444433 0.561244
Head 15.919624 -1.878810 -0.039473
LeftShoulder -22.694980 43.574788 17.373495
LeftArm 63.878862 -54.840481 -64.077061
LeftForeArm 7.412188 0.000000 -3.499367
LeftHand 2.260516 -0.000000 8.843455
LeftHandThumb1 -26.253704 0.000000 33.147579
RightShoulder -8.763904 3.608694 -30.952473
RightArm 15.528199 15.798930 40.696289
RightForeArm -13.354508 -0.000000 1.153942
RightHand 2.060907 -0.000000 2.978143
RightHandThumb1 -24.326973 -0.000000 -32.862282
LeftUpLeg 2.366821 -6.596231 1.724118
LeftLeg -5.054128 -0.000000 0.000000
LeftFoot -3.931726 6.566671 -16.977137
LeftToeBase -8.640586 -0.000000 0.000000
RightUpLeg 2.199169 -2.205122 3.912330
RightLeg -3.642013 -0.000000 0.000000
RightFoot -6.017148 -9.050127 8.218481
RightToeBase -1.255558 -0.000000 0.000000
3
root 1.260965 32.923556 1.144345 4.602036 2.674545 -2.104736
Spine -7.277515 -7.459619 0.546260
Head 15.954493 -1.865827 -0.017732
LeftShoulder -22.691871 43.578145 17.394902
LeftArm 63.954495 -54.830589 -64.214011
LeftForeArm 7.502044 -0.000000 -3.438376
LeftHand 2.208427 -0.000000 8.783907
LeftHandThumb1 -26.253704 0.000000 33.147579
RightShoulder -8.758718 3.601322 -30.933093
RightArm 15.549962 15.769324 40.705466
RightForeArm -13.298136 -0.000000 1.151856
RightHand 2.075363 0.000000 2.935750
RightHandThumb1 -24.326973 -0.000000 -32.862282
LeftUpLeg 2.378770 -6.598300 1.723145
LeftLeg -5.045781 -0.000000 0.000000
LeftFoot -3.925931 6.549234 -16.967267
LeftToeBase -8.738250 -0.000000 0.000000
RightUpLeg 2.226367 -2.192378 3.911945
RightLeg -3.661528 -0.000000 0.000000
RightFoot -6.012934 -9.075328 8.219315
RightToeBase -1.243848 -0.000000 0.000000
4
root 1.258106 32.923103 1.153742 4.610021 2.689575 -2.095220
Spine -7.321057 -7.479297 0.532852
Head 15.982187 -1.855808 -0.003262
LeftShoulder -22.717899 43.643009 17.373618
LeftArm 63.978970 -54.777390 -64.196048
LeftForeArm 7.432279 -0.000000 -3.473890
LeftHand 2.219171 -0.000000 8.690371
LeftHandThumb1 -26.253704 0.000000 33.147579
RightShoulder -8.763891 3.521512 -30.919878
RightArm 15.636701 15.826195 40.759499
RightForeArm -13.383339 -0.000000 1.150545
RightHand 2.088266 -0.000000 2.949930
RightHandThumb1 -24.326973 -0.000000 -32.862282
LeftUpLeg 2.380129 -6.585326 1.717724
LeftLeg -5.030591 -0.000000 0.000000
LeftFoot -3.940271 6.528896 -16.935719
LeftToeBase -8.734302 -0.000000 0.000000
RightUpLeg 2.244885 -2.200892 3.910348
RightLeg -3.681980 -0.000000 0.000000
RightFoot -6.008826 -9.086324 8.203997
RightToeBase -1.218610 -0.000000 0.000000
5
root 1.255972 32.922127 1.163128 4.614703 2.697908 -2.090166
Spine -7.362063 -7.486354 0.525879
Head 16.011972 -1.854140 0.006339
LeftShoulder -22.720485 43.674032 17.365320
LeftArm 64.013427 -54.745159 -64.215062
LeftForeArm 7.399295 -0.000000 -3.495994
LeftHand 2.251331 -0.000000 8.633943
LeftHandThumb1 -26.253704 0.000000 33.147579
RightShoulder -8.750398 3.509382 -30.914012
RightArm 15.649908 15.821224 40.779570
RightForeArm -13.391684 -0.000000 1.147263
RightHand 2.119274 -0.000000 2.863467
RightHandThumb1 -24.326973 -0.000000 -32.862282
LeftUpLeg 2.386915 -6.583176 1.715489
LeftLeg -5.022869 -0.000000 0.000000
LeftFoot -3.958410 6.525926 -16.937521
LeftToeBase -8.715027 -0.000000 0.000000
RightUpLeg 2.262171 -2.202587 3.910528
RightLeg -3.692819 -0.000000 0.000000
RightFoot -6.005489 -9.098343 8.174463
RightToeBase -1.275329 -0.000000 0.000000
6
root 1.253511 32.921431 1.171453 4.629126 2.702687 -2.089368
Spine -7.407239 -7.491440 0.521768
Head 16.025641 -1.845831 0.025033
LeftShoulder -22.725841 43.698408 17.358593
LeftArm 64.062959 -54.726247 -64.268939
LeftForeArm 7.419405 -0.000000 -3.490194
LeftHand 2.213160 -0.000000 8.571236
LeftHandThumb1 -26.253704 0.000000 33.147579
RightShoulder -8.747193 3.488925 -30.892060
RightArm 15.693172 15.837733 40.801065
RightForeArm -13.385719 -0.000000 1.125875
RightHand 2.154402 0.000000 2.815247
RightHandThumb1 -24.326973 -0.000000 -32.862282
LeftUpLeg 2.381516 -6.582141 1.718076
LeftLeg -5.010953 -0.000000 0.000000
LeftFoot -3.980489 6.522833 -16.941733
LeftToeBase -8.724078 -0.000000 0.000000
RightUpLeg 2.267372 -2.203973 3.912888
RightLeg -3.703043 -0.000000 0.000000
RightFoot -6.003243 -9.089883 8.180116
RightToeBase -1.255436 -0.000000 0.000000
7
root 1.249767 32.920298 1.180973 4.636617 2.713840 -2.090119
Spine -7.442681 -7.494950 0.508689
Head 16.030362 -1.863800 0.070498
LeftShoulder -22.725148 43.699165 17.372571
LeftArm 64.036502 -54.667852 -64.213684
LeftForeArm 7.419170 -0.000000 -3.523548
LeftHand 2.182408 -0.000000 8.481726
LeftHandThumb1 -26.253704 0.000000 33.147579
RightShoulder -8.746061 3.544206 -30.869851
RightArm 15.664516 15.794647 40.793585
RightForeArm -13.377536 -0.000000 1.115584
RightHand 2.219336 0.000000 2.875987
RightHandThumb1 -24.326973 -0.000000 -32.862282
LeftUpLeg 2.387450 -6.574444 1.726002
LeftLeg -5.005739 -0.000000 0.000000
LeftFoot -3.987024 6.495786 -16.940185
LeftToeBase -8.729404 -0.000000 0.000000
RightUpLeg 2.286479 -2.218359 3.921692
RightLeg -3.724474 -0.000000 0.000000
RightFoot -6.001185 -9.080397 8.183670
RightToeBase -1.263727 -0.000000 0.000000
8
root 1.247536 32.919069 1.189710 4.640515 2.725631 -2.087738
Spine -7.472319 -7.504303 0.505164
Head 16.031027 -1.868851 0.067829
LeftShoulder -22.719928 43.712237 17.361902
LeftArm 64.063875 -54.664664 -64.228189
LeftForeArm 7.470227 -0.000000 -3.557850
LeftHand 2.130098 -0.000000 8.329803
LeftHandThumb1 -26.253704 0.000000 33.147579
RightShoulder -8.747363 3.493562 -30.867258
RightArm 15.713439 15.853701 40.849534
RightForeArm -13.394346 -0.000000 1.117180
RightHand 2.300366 0.000000 2.799855
RightHandThumb1 -24.326973 -0.000000 -32.862282
LeftUpLeg 2.390646 -6.586962 1.728569
LeftLeg -4.991294 -0.000000 0.000000
LeftFoot -4.010373 6.493455 -16.925918
LeftToeBase -8.704588 -0.000000 0.000000
RightUpLeg 2.317959 -2.193712 3.922283
RightLeg -3.766022 -0.000000 0.000000
RightFoot -5.990791 -9.109771 8.190512
RightToeBase -1.256752 -0.000000 0.000000
9
root 1.245041 32.917840 1.198487 4.644348 2.731156 -2.082931
Spine -7.501150 -7.497647 0.494240
Head 16.030972 -1.885229 0.082377
LeftShoulder -22.713683 43.728404 17.365647
LeftArm 63.969350 -54.595217 -64.089480
LeftForeArm 7.407133 -0.000000 -3.593238
LeftHand 2.102011 -0.000000 8.225910
LeftHandThumb1 -26.253704 0.000000 33.147579
RightShoulder -8.761638 3.448656 -30.845103
RightArm 15.767594 15.864470 40.864274
RightForeArm -13.365606 -0.000000 1.088632
RightHand 2.408604 -0.000000 2.645036
RightHandThumb1 -24.326973 -0.000000 -32.862282
LeftUpLeg 2.404051 -6.613093 1.724709
LeftLeg -4.985912 -0.000000 0.000000
LeftFoot -4.066627 6.529785 -16.862173
LeftToeBase -8.563278 -0.000000 0.000000
RightUpLeg 2.339236 -2.194085 3.921334
RightLeg -3.787717 -0.000000 0.000000
RightFoot -5.981245 -9.109419 8.185088
RightToeBase -1.329400 -0.000000 0.000000
10
root 1.241735 32.916835 1.206202 4.645500 2.736562 -2.085548
Spine -7.520820 -7.502697 0.490555
Head 16.017805 -1.885069 0.101391
LeftShoulder -22.709015 43.735892 17.366166
LeftArm 63.968135 -54.582284 -64.082162
LeftForeArm 7.413647 0.000000 -3.625586
LeftHand 2.118189 -0.000000 8.182042
LeftHandThumb1 -26.253704 0.000000 33.147579
RightShoulder -8.752106 3.429384 -30.835326
RightArm 15.778914 15.870118 40.889107
RightForeArm -13.394931 -0.000000 1.091028
RightHand 2.486203 -0.000000 2.579238
RightHandThumb1 -24.326973 -0.000000 -32.862282
LeftUpLeg 2.410272 -6.597258 1.735112
LeftLeg -4.982877 -0.000000 0.000000
LeftFoot -4.044793 6.487111 -16.944824
LeftToeBase -8.734547 -0.000000 0.000000
RightUpLeg 2.356486 -2.186191 3.930363
RightLeg -3.799953 -0.000000 0.000000
RightFoot -5.977315 -9.125368 8.165263
RightToeBase -1.317815 -0.000000 0.000000
11
root 1.239457 32.915704 1.214200 4.646708 2.743183 -2.086994
Spine -7.541219 -7.514943 0.490443
Head 16.012436 -1.890580 0.110898
LeftShoulder -22.710152 43.738680 17.361679
LeftArm 63.904215 -54.551845 -64.007431
LeftForeArm 7.390015 -0.000000 -3.647754
LeftHand 2.086634 -0.000000 8.149705
LeftHandThumb1 -26.253704 0.000000 33.147579
RightShoulder -8.743865 3.406242 -30.824292
RightArm 15.799265 15.819213 40.896180
RightForeArm -13.396618 -0.000000 1.087056
RightHand 2.587855 -0.000000 2.388048
RightHandThumb1 -24.326973 -0.000000 -32.862282
LeftUpLeg 2.419691 -6.602307 1.740144
LeftLeg -4.976072 -0.000000 0.000000
LeftFoot -4.063023 6.473847 -16.937203
LeftToeBase -8.805086 -0.000000 0.000000
RightUpLeg 2.370296 -2.202618 3.937060
RightLeg -3.803047 -0.000000 0.000000
RightFoot -5.981769 -9.124209 8.160543
RightToeBase -1.339589 -0.000000 0.000000
12
root 1.237285 32.914500 1.222244 4.641692 2.743063 -2.087986
Spine -7.550383 -7.511812 0.490516
Head 15.991228 -1.909474 0.104293
LeftShoulder -22.690570 43.741111 17.365711
LeftArm 63.912857 -54.563769 -64.033390
LeftForeArm 7.414988 -0.000000 -3.669276
LeftHand 2.053088 -0.000000 8.168906
LeftHandThumb1 -26.253704 0.000000 33.147579
RightShoulder -8.751484 3.365257 -30.816734
RightArm 15.839166 15.810361 40.912470
RightForeArm -13.446987 0.000000 1.088844
RightHand 2.701301 -0.000000 2.280053
RightHandThumb1 -24.326973 -0.000000 -32.862282
LeftUpLeg 2.443120 -6.616559 1.741411
LeftLeg -4.983996 -0.000000 0.000000
LeftFoot -4.079791 6.492623 -16.939974
LeftToeBase -8.816568 -0.000000 0.000000
RightUpLeg 2.400549 -2.185192 3.940493
RightLeg -3.826569 -0.000000 0.000000
RightFoot -5.968879 -9.131024 8.171502
RightToeBase -1.388920 -0.000000 0.000000
13
root 1.235211 32.913414 1.229271 4.637360 2.730974 -2.090315
Spine -7.556423 -7.505574 0.492192
Head 15.972829 -1.909108 0.097694
LeftShoulder -22.693494 43.751999 17.349732
LeftArm 63.866719 -54.559630 -63.983110
LeftForeArm 7.408719 0.000000 -3.679536
LeftHand 2.031954 -0.000000 8.163368
LeftHandThumb1 -26.253704 0.000000 33.147579
RightShoulder -8.742534 3.365408 -30.817635
RightArm 15.845837 15.816123 40.937568
RightForeArm -13.550479 0.000000 1.092923
RightHand 2.810063 0.000000 2.111690
RightHandThumb1 -24.326973 -0.000000 -32.862282
LeftUpLeg 2.458367 -6.612097 1.746923
LeftLeg -4.976280 -0.000000 0.000000
LeftFoot -4.112270 6.487176 -16.957740
LeftToeBase -8.743190 -0.000000 0.000000
RightUpLeg 2.416159 -2.182673 3.944864
RightLeg -3.827267 -0.000000 0.000000
RightFoot -5.982695 -9.118881 8.171173
RightToeBase -1.367585 -0.000000 0.000000
